<?xml version="1.0" encoding="UTF-8" standalone="no"?>
<!-- Created with Inkscape (http://www.inkscape.org/) -->

<svg
   xmlns:dc="http://purl.org/dc/elements/1.1/"
   xmlns:cc="http://creativecommons.org/ns#"
   xmlns:rdf="http://www.w3.org/1999/02/22-rdf-syntax-ns#"
   xmlns:svg="http://www.w3.org/2000/svg"
   xmlns="http://www.w3.org/2000/svg"
   xmlns:sodipodi="http://sodipodi.sourceforge.net/DTD/sodipodi-0.dtd"
   xmlns:inkscape="http://www.inkscape.org/namespaces/inkscape"
   width="3000"
   height="862.62817"
   viewBox="0 0 3000 862.62821"
   id="svg40450"
   version="1.1"
   inkscape:version="0.91 r13725"
   sodipodi:docname="lider.svg">
  <title
     id="title55258">La Polar</title>
  <defs
     id="defs40452" />
  <sodipodi:namedview
     id="base"
     pagecolor="#ffffff"
     bordercolor="#666666"
     borderopacity="1.0"
     inkscape:pageopacity="0.0"
     inkscape:pageshadow="2"
     inkscape:zoom="0.15861486"
     inkscape:cx="1510.7737"
     inkscape:cy="885.87214"
     inkscape:document-units="px"
     inkscape:current-layer="layer1"
     showgrid="false"
     inkscape:showpageshadow="false"
     fit-margin-top="20"
     fit-margin-bottom="20"
     fit-margin-left="20"
     fit-margin-right="20"
     units="px"
     inkscape:window-width="1366"
     inkscape:window-height="715"
     inkscape:window-x="-8"
     inkscape:window-y="-8"
     inkscape:window-maximized="1" />
  <metadata
     id="metadata40455">
    <rdf:RDF>
      <cc:Work
         rdf:about="">
        <dc:format>image/svg+xml</dc:format>
        <dc:type
           rdf:resource="http://purl.org/dc/dcmitype/StillImage" />
        <dc:title>La Polar</dc:title>
      </cc:Work>
    </rdf:RDF>
  </metadata>
  <g
     inkscape:label="Capa 1"
     inkscape:groupmode="layer"
     id="layer1"
     transform="translate(1276.0059,321.23608)">
    <g
       id="g47599"
       transform="matrix(51.887739,0,0,-51.887739,-910.59971,282.92854)" />
    <g
       id="g47603"
       transform="matrix(51.887739,0,0,-51.887739,-225.95555,3.9178385)" />
    <g
       id="g47607"
       transform="matrix(51.887739,0,0,-51.887739,-693.49728,189.8461)" />
    <g
       id="g47611"
       transform="matrix(51.887739,0,0,-51.887739,336.90595,282.92854)" />
    <g
       id="g47615"
       transform="matrix(51.887739,0,0,-51.887739,-1256.006,342.6451)" />
    <g
       id="g47619"
       transform="matrix(51.887739,0,0,-51.887739,-8.5086498,342.6451)" />
    <g
       id="g47623"
       transform="matrix(51.887739,0,0,-51.887739,463.59095,344.72476)" />
    <g
       id="g47627"
       transform="matrix(51.887739,0,0,-51.887739,649.32405,312.33851)" />
    <g
       id="g47631"
       transform="matrix(51.887739,0,0,-51.887739,641.14655,329.76864)">
      <path
         id="path47633"
         style="fill:#ed1d24;fill-opacity:1;fill-rule:nonzero;stroke:none"
         d="m 0,0 0.169,0 c 0.058,0 0.154,0 0.154,-0.123 0,-0.119 -0.1,-0.119 -0.154,-0.119 L 0,-0.242 0,0 Z m -0.107,-0.687 0.107,0 0,0.353 0.134,0 c 0.127,0 0.158,-0.031 0.169,-0.15 0.016,-0.123 0.023,-0.153 0.039,-0.203 l 0.111,0 c -0.027,0.077 -0.035,0.149 -0.046,0.245 -0.011,0.096 -0.038,0.131 -0.119,0.15 0.146,0.042 0.146,0.165 0.146,0.188 0,0.196 -0.207,0.196 -0.265,0.196 l -0.276,0 0,-0.779 z m 0.26459985,1.02292001 c 0.361,0 0.639,-0.296 0.639,-0.639 0,-0.357 -0.286,-0.645 -0.639,-0.645 -0.349,0 -0.639,0.284 -0.639,0.645 0,0.351 0.29,0.639 0.639,0.639 m 0,0.086 c -0.388,0 -0.726,-0.318 -0.726,-0.725 0,-0.407 0.334,-0.73000001 0.726,-0.73000001 0.395,0 0.726,0.32300001 0.726,0.73000001 0,0.403 -0.327,0.725 -0.726,0.725 m -3.57951805,-0.71015997 0,4.46099996 c 0,1.509 1.549,2.572 3.93599997,1.909 0.50000003,-0.139 0.63200003,-0.584 0.57100003,-0.953 -0.06,-0.354 -0.46800003,-0.749 -1.00300003,-0.6 -1.08399997,0.301 -1.57599997,0.114 -1.77199997,-0.142 -0.148,-0.194 -0.121,-0.332 -0.121,-0.889 l 10e-4,-3.78599996 c 0,-0.544 -0.454,-0.80600004 -0.799,-0.80600004 -0.385,0 -0.813,0.27500004 -0.813,0.80600004 m -9.0984808,0.04008 0,8.00199996 c 0,0.544 0.453,0.806 0.799,0.806 0.385,0 0.813,-0.275 0.813,-0.806 l 0,-8.00199996 c 0,-0.544 -0.454,-0.80600004 -0.799,-0.80600004 -0.385,0 -0.813,0.27500004 -0.813,0.80600004 m -24.042238,0 0,8.00199996 c 0,0.544 0.453,0.806 0.799,0.806 0.384,0 0.813,-0.275 0.813,-0.806 l 0,-8.00199996 c 0,-0.544 -0.454,-0.80600004 -0.799,-0.80600004 -0.385,0 -0.813,0.27500004 -0.813,0.80600004 M -5.8634391,0.90272 l 0,1.232 c -0.883,-0.288 -2.687,0.444 -2.654,-0.802 0.028,-1.092 2.06,-0.917 2.631,-0.449 l 0.023,0.019 z m -0.035,2.98 c 0.032,0.065 0.024,0.152 0.015,0.199 -0.187,0.986 -1.734,0.514 -2.312,0.215 -0.472,-0.243 -0.936,-0.013 -1.113,0.339 -0.163,0.323 -0.115,0.838 0.368,1.088 0,0 0.243,0.129 0.582,0.268 1.8,0.74 4.124,0.079 4.107,-2.098 l 0,-3.088 c 0,-0.293 -0.09,-0.995 -1.189,-1.53 -1.685,-0.819 -4.6709999,-0.395 -4.6909999,2.075 -0.01,1.301 0.9179999,2.207 2.0909999,2.325 0.778,0.078 1.564,-0.066 1.897,0.036 0.108,0.033 0.199,0.08 0.245,0.171 M -25.721757,2.6966398 c 0.515,0.214 0.943,0.274 1.969,0.248 0.854,-0.021 1.639,0.619 1.639,2.046 0,1.209 -0.875,1.922 -1.774,2.008 -0.887,0.085 -1.36,-0.153 -1.527,-0.332 -0.123,-0.133 -0.307,-0.311 -0.307,-1.192 l 0,-2.778 z m 0,-2.29100004 -0.001,-0.654 c 0,-0.544 -0.454,-0.80599996 -0.799,-0.80599996 -0.385,0 -0.813,0.27599996 -0.813,0.80599996 l 0.001,6.05600004 c 0,2.193 1.677,2.861 3.396,2.815 1.615,-0.043 3.436,-1.284 3.436,-3.683 0,-1.848 -1.04,-3.5 -3.149,-3.607 -0.473,-0.042 -0.999,0.03 -1.448,-0.118 -0.371,-0.123 -0.623,-0.29900004 -0.623,-0.80900004 m 9.01064,5.87427934 c 1.956,0 3.402,-1.732 3.402,-3.687 0,-1.95500003 -1.446,-3.687 -3.402,-3.687 -1.956,0 -3.402,1.73199997 -3.402,3.687 0,1.955 1.446,3.687 3.402,3.687 m 0,-1.612 c -0.912,0 -1.79,-0.848 -1.79,-2.075 0,-1.227 0.878,-2.07500003 1.79,-2.07500003 0.912,0 1.79,0.84800003 1.79,2.07500003 0,1.227 -0.878,2.075 -1.79,2.075 m -13.19472,-3.7651991 0,1.232 c -0.883,-0.288 -2.687,0.444 -2.654,-0.802 0.028,-1.092 2.06,-0.917 2.631,-0.449 l 0.023,0.019 z m -0.035,2.98 c 0.033,0.065 0.024,0.152 0.016,0.199 -0.188,0.986 -1.735,0.514 -2.313,0.215 -0.472,-0.243 -0.936,-0.013 -1.113,0.339 -0.162,0.323 -0.115,0.838 0.368,1.088 0,0 0.243,0.129 0.582,0.268 1.8,0.74 4.124,0.079 4.107,-2.098 l 0,-3.088 c 0,-0.293 -0.09,-0.995 -1.188,-1.53 -1.686,-0.819 -4.672,-0.395 -4.692,2.075 -0.01,1.301 0.918,2.207 2.091,2.325 0.778,0.078 1.564,-0.066 1.897,0.036 0.109,0.033 0.199,0.08 0.245,0.171 m 43.889438,0.8562399 0,3.478 c 0,1.102 0.231,1.326 0.385,1.4920001 0.208001,0.2239999 0.8,0.522 1.911001,0.416 1.126,-0.108 2.220998,-1.0010001 2.220998,-2.5140001 0,-1.787 -0.982999,-2.588 -2.050999,-2.561 -1.284999,0.032 -1.82,-0.043 -2.466,-0.311 m 3.158998,-8.4319996 -10.9009996,0 c -0.871,0 -1.5770001,0.7059999 -1.5770001,1.5760001 l 0,10.8829999 c 0,1.8749997 1.5200001,3.3949997 3.3950007,3.3949997 l 7.882999,-10e-4 C 13.8556,12.14096 11.9316,11.26196 11.9316,8.6329599 l -0.002,-7.58 c 0,-0.664 0.535999,-1.009 1.017999,-1.009 0.432,0 0.999999,0.32800003 0.999999,1.009 l 0.001,0.818 c 0,0.6390001 0.316001,0.8590001 0.780001,1.013 0.563,0.185 1.220999,0.096 1.812999,0.1470001 2.639001,0.1349999 3.942,2.2029999 3.942,4.5159999 l 0,-7.84500006 c 0,-1.86899994 -1.51,-3.38499984 -3.376,-3.39499994"
         inkscape:connector-curvature="0" />
    </g>
  </g>
</svg>
